<mxfile host="app.diagrams.net" agent="Mozilla/5.0 (Windows NT 10.0; Win64; x64) AppleWebKit/537.36 (KHTML, like Gecko) Chrome/131.0.0.0 Safari/537.36" version="25.0.3">
  <diagram name="Trang-1" id="fCjLVKnio8lgM7wwX2GL">
    <mxGraphModel dx="1050" dy="557" grid="1" gridSize="10" guides="1" tooltips="1" connect="1" arrows="1" fold="1" page="1" pageScale="1" pageWidth="827" pageHeight="1169" math="0" shadow="0">
      <root>
        <mxCell id="0" />
        <mxCell id="1" parent="0" />
        <mxCell id="5SuE8XNKNOG00KGZ_I5p-2" style="edgeStyle=orthogonalEdgeStyle;rounded=0;orthogonalLoop=1;jettySize=auto;html=1;exitX=1;exitY=0.5;exitDx=0;exitDy=0;" parent="1" source="5SuE8XNKNOG00KGZ_I5p-1" edge="1">
          <mxGeometry relative="1" as="geometry">
            <mxPoint x="200" y="310" as="targetPoint" />
          </mxGeometry>
        </mxCell>
        <mxCell id="5SuE8XNKNOG00KGZ_I5p-1" value="START" style="ellipse;whiteSpace=wrap;html=1;" parent="1" vertex="1">
          <mxGeometry x="10" y="270" width="120" height="80" as="geometry" />
        </mxCell>
        <mxCell id="GV7UcSRitgKWa_3k6nV0-4" style="edgeStyle=orthogonalEdgeStyle;rounded=0;orthogonalLoop=1;jettySize=auto;html=1;entryX=0;entryY=0.5;entryDx=0;entryDy=0;" edge="1" parent="1" source="GV7UcSRitgKWa_3k6nV0-1" target="GV7UcSRitgKWa_3k6nV0-2">
          <mxGeometry relative="1" as="geometry" />
        </mxCell>
        <mxCell id="GV7UcSRitgKWa_3k6nV0-1" value="input n;" style="rounded=1;whiteSpace=wrap;html=1;" vertex="1" parent="1">
          <mxGeometry x="200" y="280" width="120" height="60" as="geometry" />
        </mxCell>
        <mxCell id="GV7UcSRitgKWa_3k6nV0-7" style="edgeStyle=orthogonalEdgeStyle;rounded=0;orthogonalLoop=1;jettySize=auto;html=1;exitX=1;exitY=0.5;exitDx=0;exitDy=0;entryX=0;entryY=0.5;entryDx=0;entryDy=0;" edge="1" parent="1" source="GV7UcSRitgKWa_3k6nV0-2" target="GV7UcSRitgKWa_3k6nV0-5">
          <mxGeometry relative="1" as="geometry" />
        </mxCell>
        <mxCell id="GV7UcSRitgKWa_3k6nV0-2" value="i=0;i&amp;lt;=n;i++" style="rounded=1;whiteSpace=wrap;html=1;" vertex="1" parent="1">
          <mxGeometry x="380" y="280" width="120" height="60" as="geometry" />
        </mxCell>
        <mxCell id="GV7UcSRitgKWa_3k6nV0-9" style="edgeStyle=orthogonalEdgeStyle;rounded=0;orthogonalLoop=1;jettySize=auto;html=1;entryX=0;entryY=0.5;entryDx=0;entryDy=0;" edge="1" parent="1" source="GV7UcSRitgKWa_3k6nV0-5" target="GV7UcSRitgKWa_3k6nV0-8">
          <mxGeometry relative="1" as="geometry" />
        </mxCell>
        <mxCell id="GV7UcSRitgKWa_3k6nV0-5" value="n%i" style="rounded=1;whiteSpace=wrap;html=1;absoluteArcSize=1;arcSize=14;strokeWidth=2;" vertex="1" parent="1">
          <mxGeometry x="540" y="285" width="100" height="50" as="geometry" />
        </mxCell>
        <mxCell id="GV7UcSRitgKWa_3k6nV0-11" style="edgeStyle=orthogonalEdgeStyle;rounded=0;orthogonalLoop=1;jettySize=auto;html=1;entryX=0.5;entryY=0;entryDx=0;entryDy=0;" edge="1" parent="1" source="GV7UcSRitgKWa_3k6nV0-8" target="GV7UcSRitgKWa_3k6nV0-10">
          <mxGeometry relative="1" as="geometry" />
        </mxCell>
        <mxCell id="GV7UcSRitgKWa_3k6nV0-8" value="Printf(&quot;%d&quot;,i)" style="rounded=1;whiteSpace=wrap;html=1;absoluteArcSize=1;arcSize=14;strokeWidth=2;" vertex="1" parent="1">
          <mxGeometry x="690" y="285" width="100" height="50" as="geometry" />
        </mxCell>
        <mxCell id="GV7UcSRitgKWa_3k6nV0-10" value="END" style="ellipse;whiteSpace=wrap;html=1;" vertex="1" parent="1">
          <mxGeometry x="680" y="430" width="120" height="80" as="geometry" />
        </mxCell>
      </root>
    </mxGraphModel>
  </diagram>
</mxfile>
